<svg width="20" height="20" viewBox="0 0 20 20" fill="none" xmlns="http://www.w3.org/2000/svg">
<path d="M15 1.33987C16.5071 2.21002 17.761 3.45841 18.6379 4.96164C19.5147 6.46488 19.984 8.17091 19.9995 9.91111C20.015 11.6513 19.5761 13.3654 18.7261 14.884C17.8762 16.4026 16.6447 17.6731 15.1533 18.5699C13.6619 19.4668 11.9623 19.9589 10.2224 19.9976C8.48259 20.0363 6.76276 19.6203 5.23295 18.7907C3.70314 17.9612 2.4163 16.7467 1.49963 15.2674C0.582966 13.7882 0.0682121 12.0953 0.00625014 10.3561L0 9.99986L0.00625014 9.64361C0.0677424 7.91955 0.574211 6.24072 1.47643 4.77028C2.37865 3.29985 3.64593 2.08783 5.15511 1.25203C6.66429 0.416225 8.36402 -0.0149326 10.0891 0.000459144C11.8142 0.0158509 13.506 0.477269 15 1.33987ZM12.5 8.74986H7.5L7.35375 8.75861C7.03738 8.79624 6.74732 8.95326 6.54283 9.19757C6.33834 9.44189 6.23486 9.75507 6.25353 10.0731C6.2722 10.3912 6.41162 10.6901 6.64329 10.9088C6.87496 11.1275 7.1814 11.2495 7.5 11.2499H12.5L12.6462 11.2411C12.9626 11.2035 13.2527 11.0465 13.4572 10.8022C13.6617 10.5578 13.7651 10.2447 13.7465 9.92661C13.7278 9.60855 13.5884 9.30964 13.3567 9.09092C13.125 8.87221 12.8186 8.75022 12.5 8.74986Z" fill="#0088DF"/>
</svg>
