<svg width="57" height="38" viewBox="0 0 57 38" fill="none" xmlns="http://www.w3.org/2000/svg">
<path d="M12.1094 26L15.8008 15.8145H17.6807L21.3447 26H19.6562L18.7676 23.3818H14.6797L13.7568 26H12.1094ZM15.1377 22.0693H18.3164L17.7148 20.2988C17.5781 19.875 17.4323 19.4215 17.2773 18.9385C17.1224 18.4554 16.9447 17.8857 16.7441 17.2295C16.5391 17.8857 16.359 18.4554 16.2041 18.9385C16.0492 19.4215 15.901 19.875 15.7598 20.2988L15.1377 22.0693ZM21.6016 26L26.3477 12.9043H28.7646L33.4756 26H31.3047L30.1621 22.6338H24.9062L23.7197 26H21.6016ZM25.4951 20.9463H29.582L28.8086 18.6699C28.6328 18.125 28.4453 17.542 28.2461 16.9209C28.0469 16.2998 27.8184 15.5674 27.5605 14.7236C27.2969 15.5674 27.0654 16.2998 26.8662 16.9209C26.667 17.542 26.4766 18.125 26.2949 18.6699L25.4951 20.9463ZM37.8965 23.8467V20.3486H34.4336V18.7051H37.8965V15.1982H39.6104V18.7051H43.0732V20.3486H39.6104V23.8467H37.8965Z" fill="#8F8F8F"/>
</svg>
