<svg width="128" height="216" viewBox="0 0 128 216" fill="none" xmlns="http://www.w3.org/2000/svg">
<g opacity="0.2">
<g clip-path="url(#clip0_328_170)">
<rect x="0.5" y="0.5" width="215" height="215" rx="107.5" fill="url(#paint0_linear_328_170)"/>
<g filter="url(#filter0_f_328_170)">
<path fill-rule="evenodd" clip-rule="evenodd" d="M33.5364 66.5948C45.822 48.328 49.0624 18.1655 70.8754 15.1981C92.5374 12.2512 109.214 35.7975 119.954 54.8386C128.336 69.6982 119.297 87.086 121.001 104.061C123.129 125.263 141.699 146.317 130.987 164.737C119.437 184.596 92.9349 194.972 70.2529 191.322C49.0987 187.919 38.1967 165.67 26.2483 147.885C17.2342 134.467 9.92637 119.774 11.3698 103.674C12.7066 88.764 25.1821 79.0164 33.5364 66.5948Z" fill="#7028E4"/>
</g>
<g filter="url(#filter1_f_328_170)">
<path fill-rule="evenodd" clip-rule="evenodd" d="M111.785 58.012C123.552 40.2204 128.013 9.85193 149.334 9.23479C170.528 8.62134 178.218 37.5522 189.056 55.7754C196.426 68.1674 201.122 81.2895 200.76 95.7028C200.407 109.741 195.102 122.319 187.092 133.852C176.6 148.959 167.139 171.358 148.764 170.569C130.359 169.78 124.643 145.444 113.6 130.7C105.032 119.261 92.7588 109.607 92.4021 95.3198C92.0386 80.7556 103.749 70.1636 111.785 58.012Z" fill="#91D3FF"/>
</g>
<path d="M81.1695 119.659C81.71 116.725 85.915 116.725 86.4555 119.659L88.0759 128.455C88.2779 129.552 89.1357 130.41 90.2321 130.612L99.028 132.232C101.962 132.773 101.962 136.977 99.028 137.518L90.2321 139.138C89.1357 139.34 88.2779 140.198 88.0759 141.295L86.4555 150.091C85.915 153.025 81.71 153.025 81.1695 150.091L79.5491 141.295C79.3471 140.198 78.4893 139.34 77.3929 139.138L68.597 137.518C65.6629 136.977 65.6628 132.773 68.597 132.232L77.3929 130.612C78.4893 130.41 79.3471 129.552 79.5491 128.455L81.1695 119.659Z" fill="white"/>
<path d="M118.786 70.349C119.28 67.3481 123.595 67.3481 124.089 70.3491L127.205 89.2671C127.393 90.4039 128.284 91.2949 129.42 91.4821L148.338 94.5982C151.339 95.0925 151.339 99.4075 148.338 99.9018L129.42 103.018C128.284 103.205 127.393 104.096 127.205 105.233L124.089 124.151C123.595 127.152 119.28 127.152 118.786 124.151L115.67 105.233C115.482 104.096 114.591 103.205 113.455 103.018L94.5365 99.9018C91.5356 99.4075 91.5356 95.0925 94.5366 94.5982L113.455 91.4821C114.591 91.2949 115.482 90.4039 115.67 89.2671L118.786 70.349Z" fill="white"/>
</g>
</g>
<defs>
<filter id="filter0_f_328_170" x="-56.0005" y="-52.2408" width="257.48" height="311.473" filterUnits="userSpaceOnUse" color-interpolation-filters="sRGB">
<feFlood flood-opacity="0" result="BackgroundImageFix"/>
<feBlend mode="normal" in="SourceGraphic" in2="BackgroundImageFix" result="shape"/>
<feGaussianBlur stdDeviation="33.5938" result="effect1_foregroundBlur_328_170"/>
</filter>
<filter id="filter1_f_328_170" x="-28.5437" y="-111.712" width="350.26" height="403.239" filterUnits="userSpaceOnUse" color-interpolation-filters="sRGB">
<feFlood flood-opacity="0" result="BackgroundImageFix"/>
<feBlend mode="normal" in="SourceGraphic" in2="BackgroundImageFix" result="shape"/>
<feGaussianBlur stdDeviation="60.4688" result="effect1_foregroundBlur_328_170"/>
</filter>
<linearGradient id="paint0_linear_328_170" x1="67.6875" y1="94.5625" x2="41.0127" y2="37.6533" gradientUnits="userSpaceOnUse">
<stop stop-color="white"/>
<stop offset="1" stop-color="white"/>
</linearGradient>
<clipPath id="clip0_328_170">
<rect x="0.5" y="0.5" width="215" height="215" rx="107.5" fill="white"/>
</clipPath>
</defs>
</svg>
