<svg width="26" height="26" viewBox="0 0 26 26" fill="none" xmlns="http://www.w3.org/2000/svg">
<g clip-path="url(#clip0_214_14110)">
<path d="M10.7457 22.3261C9.81043 22.114 8.91217 21.763 8.08081 21.2849" stroke="white" stroke-width="1.61184" stroke-linecap="round" stroke-linejoin="round"/>
<path d="M15.0438 3.46332C17.1802 3.95125 19.0877 5.15005 20.4539 6.86345C21.8201 8.57686 22.5641 10.7033 22.5641 12.8947C22.5641 15.0862 21.8201 17.2126 20.4539 18.926C19.0877 20.6394 17.1802 21.8382 15.0438 22.3262" stroke="white" stroke-width="1.61184" stroke-linecap="round" stroke-linejoin="round"/>
<path d="M4.92042 18.3676C4.33425 17.516 3.88905 16.5755 3.60193 15.5823" stroke="white" stroke-width="1.61184" stroke-linecap="round" stroke-linejoin="round"/>
<path d="M3.35693 11.2828C3.52886 10.262 3.85983 9.29488 4.32404 8.40837L4.50564 8.08063" stroke="white" stroke-width="1.61184" stroke-linecap="round" stroke-linejoin="round"/>
<path d="M7.422 4.92042C8.42742 4.2283 9.55535 3.7338 10.7456 3.46332" stroke="white" stroke-width="1.61184" stroke-linecap="round" stroke-linejoin="round"/>
<path d="M12.8947 9.67108L10.7456 12.8948H15.0439L12.8947 16.1185" stroke="white" stroke-width="1.61184" stroke-linecap="round" stroke-linejoin="round"/>
</g>
<defs>
<clipPath id="clip0_214_14110">
<rect width="25.7895" height="25.7895" />
</clipPath>
</defs>
</svg>
