<svg width="80" height="80" viewBox="0 0 80 80" fill="none" xmlns="http://www.w3.org/2000/svg">
<g clip-path="url(#clip0_760_2000)">
<path d="M40.0336 6.70331C42.6262 6.70347 45.13 7.64788 47.0769 9.35998L47.5902 9.84331L49.9169 12.17C50.5554 12.8043 51.3893 13.2048 52.2836 13.3066L52.7336 13.3333H56.0669C58.791 13.3332 61.4119 14.3752 63.3921 16.2458C65.3724 18.1163 66.562 20.6737 66.7169 23.3933L66.7336 24V27.3333C66.7336 28.2333 67.0402 29.11 67.5936 29.81L67.8936 30.1433L70.2169 32.47C72.1426 34.3848 73.2655 36.962 73.3565 39.6762C73.4476 42.3904 72.5 45.0371 70.7069 47.0766L70.2236 47.59L67.8969 49.9166C67.2625 50.5552 66.8621 51.389 66.7602 52.2833L66.7336 52.7333V56.0666C66.7337 58.7907 65.6917 61.4116 63.8211 63.3919C61.9505 65.3721 59.3932 66.5617 56.6736 66.7166L56.0669 66.7333H52.7336C51.8348 66.7336 50.9624 67.0366 50.2569 67.5933L49.9236 67.8933L47.5969 70.2166C45.6821 72.1424 43.1048 73.2652 40.3907 73.3563C37.6765 73.4473 35.0298 72.4997 32.9902 70.7066L32.4769 70.2233L30.1502 67.8966C29.5117 67.2623 28.6779 66.8618 27.7836 66.76L27.3336 66.7333H24.0002C21.2762 66.7335 18.6553 65.6914 16.675 63.8209C14.6947 61.9503 13.5052 59.393 13.3502 56.6733L13.3336 56.0666V52.7333C13.3333 51.8346 13.0303 50.9621 12.4736 50.2566L12.1736 49.9233L9.85023 47.5966C7.9245 45.6818 6.80164 43.1046 6.71059 40.3904C6.61954 37.6763 7.56716 35.0296 9.36023 32.99L9.84357 32.4766L12.1702 30.15C12.8046 29.5114 13.2051 28.6776 13.3069 27.7833L13.3336 27.3333V24L13.3502 23.3933C13.4991 20.7781 14.605 18.3091 16.4572 16.4569C18.3094 14.6047 20.7784 13.4988 23.3936 13.35L24.0002 13.3333H27.3336C28.2323 13.333 29.1047 13.0301 29.8102 12.4733L30.1436 12.1733L32.4702 9.84997C33.4614 8.85294 34.6398 8.06166 35.9378 7.52164C37.2358 6.98162 38.6277 6.70351 40.0336 6.70331ZM52.3569 30.9766C51.7318 30.3517 50.8841 30.0007 50.0002 30.0007C49.1164 30.0007 48.2687 30.3517 47.6436 30.9766L36.6669 41.95L32.3569 37.6433L32.0436 37.3666C31.3736 36.8486 30.5316 36.605 29.6885 36.6853C28.8454 36.7656 28.0645 37.1638 27.5044 37.799C26.9443 38.4343 26.647 39.2589 26.6728 40.1054C26.6987 40.9519 27.0457 41.7568 27.6436 42.3566L34.3102 49.0233L34.6236 49.3C35.2649 49.7975 36.0658 50.0439 36.8758 49.9929C37.6859 49.942 38.4496 49.5972 39.0236 49.0233L52.3569 35.69L52.6336 35.3766C53.1311 34.7353 53.3775 33.9345 53.3265 33.1244C53.2756 32.3143 52.9308 31.5506 52.3569 30.9766Z" fill="#2CA638"/>
</g>
<defs>
<clipPath id="clip0_760_2000">
<rect width="80" height="80" fill="white"/>
</clipPath>
</defs>
</svg>
