<svg width="33" height="33" viewBox="0 0 33 33" fill="none" xmlns="http://www.w3.org/2000/svg">
<path d="M2.38953 0.5C1.07065 0.5 0 1.56884 0 2.88478V11.1526C2.69954 10.9413 6.16735 10.7605 10.0299 10.7628C10.5493 6.70229 11.3123 2.92587 11.8523 0.5H2.38953Z" fill="#E30016"/>
<path d="M14.5247 0.5C13.7846 3.73997 13.1299 7.32097 12.6816 10.7992C18.8307 10.9459 25.7128 11.618 32.0255 13.3812V2.88478C32.0255 1.56884 30.9637 0.5 29.6425 0.5H14.5247Z" fill="#E30016"/>
<path d="M16.5679 30.4915C21.7516 30.3999 28.0667 26.6328 32.0604 23.8331V30.1176C32.0604 31.4341 30.9986 32.5 29.6774 32.5H2.38953C1.07065 32.5 0 31.4341 0 30.1176V13.8208C2.60307 13.619 5.97676 13.4399 9.73166 13.4382C9.0028 21.0685 9.44164 28.8844 13.9713 30.1775C14.789 30.4134 15.6602 30.5096 16.5679 30.4915Z" fill="#005D98"/>
<path d="M12.3737 13.4382C18.6564 13.5738 25.7202 14.2523 32.0211 16.1006V20.562C27.4409 23.974 19.357 28.9607 14.6603 27.6213C12.0313 26.867 11.6637 20.6677 12.3737 13.4382Z" fill="#005D98"/>
</svg>
